<?xml version="1.0" encoding="UTF-8" standalone="no"?>
<!DOCTYPE svg PUBLIC "-//W3C//DTD SVG 1.1//EN" "http://www.w3.org/Graphics/SVG/1.1/DTD/svg11.dtd">

<!-- Created with Vectornator (http://vectornator.io/) -->
<svg height="100%" stroke-miterlimit="10" style="fill-rule:nonzero;clip-rule:evenodd;stroke-linecap:round;stroke-linejoin:round;" version="1.1" viewBox="0 0 20 20" width="100%" xml:space="preserve" xmlns="http://www.w3.org/2000/svg" xmlns:vectornator="http://vectornator.io" xmlns:xlink="http://www.w3.org/1999/xlink">
<metadata>
<vectornator:setting key="IsTimeLapseWatermarkDisabled" value="false"/>
<vectornator:setting key="UndoHistoryDisabled" value="true"/>
<vectornator:setting key="VNDimensionsVisible" value="true"/>
<vectornator:setting key="VNSnapToGuides" value="true"/>
<vectornator:setting key="WDCMYKEnabledKey" value="false"/>
<vectornator:setting key="WDDisplayWhiteBackground" value="false"/>
<vectornator:setting key="WDDynamicGuides" value="false"/>
<vectornator:setting key="WDGuidesVisible" value="true"/>
<vectornator:setting key="WDIsolateActiveLayer" value="false"/>
<vectornator:setting key="WDOutlineMode" value="false"/>
<vectornator:setting key="WDRulersVisible" value="true"/>
<vectornator:setting key="WDSnapToEdges" value="false"/>
<vectornator:setting key="WDSnapToGrid" value="false"/>
<vectornator:setting key="WDSnapToPoints" value="false"/>
<vectornator:setting key="WDUnits" value="Points"/>
</metadata>
<defs/>
<g id="Ebene-1" vectornator:layerName="Ebene 1">
<path d="M5.21875 10L5.21875 11.6875L7 11.6875L7 10L5.21875 10ZM10.6875 10.8438L8.21875 10.875C9.04455 10.875 9.85979 10.8437 10.6875 10.8438ZM5.21875 13L5.21875 14.6875L7 14.6875L7 13L5.21875 13ZM10.6875 13.8125L8.21875 13.8438C9.04455 13.8438 9.85979 13.8125 10.6875 13.8125Z" fill="none" fill-rule="evenodd" opacity="1" stroke="#000000" stroke-linecap="butt" stroke-linejoin="miter" stroke-width="0.5"/>
</g>
<g id="Untitled" vectornator:layerName="Untitled">
<path d="M0 0L20 0L20 0L20 20L20 20L0 20L0 20L0 0L0 0Z" fill="none" fill-rule="evenodd" opacity="1" stroke="none"/>
<path d="M4.5 5.5L15.5 5.5L15.5 5.5L15.5 7.5L15.5 7.5L4.5 7.5L4.5 7.5L4.5 5.5L4.5 5.5Z" fill="#000000" fill-rule="evenodd" opacity="0.3" stroke="none"/>
<path d="M17 10.5L17 5.5C17 4.68 16.33 4 15.5 4L14 4L14 2L12.5 2L12.5 4L7.5 4L7.5 2L6 2L6 4L4.5 4C3.67 4 3 4.68 3 5.5L3 16.5C3 17.32 3.67 18 4.5 18L10.5 18L10.5 16.5L4.5 16.5L4.5 9L15.5 9L15.5 10.5L17 10.5Z" fill="#000000" fill-rule="evenodd" opacity="1" stroke="none"/>
<path d="M15.5 7.5L4.5 7.5L4.5 5.5L15.5 5.5L15.5 7.5Z" fill="#b1c4b4" fill-rule="evenodd" opacity="1" stroke="none"/>
<path d="M12 12L13 12L13 13.35C13.73 12.52 14.81 12 16 12C18.21 12 20 13.79 20 16C20 18.21 18.21 20 16 20C13.96 20 12.28 18.47 12.03 16.5L13.04 16.5C13.28 17.92 14.51 19 16 19C17.66 19 19 17.66 19 16C19 14.34 17.66 13 16 13C15.11 13 14.31 13.39 13.76 14L15 14L15 15L12 15L12 12Z" fill="#d93e3e" fill-rule="evenodd" opacity="1" stroke="none"/>
<path d="M6.05667 10.5612C6.71821 10.5612 7.38009 10.5752 8.04228 10.5752" fill="none" fill-rule="evenodd" opacity="1" stroke="none"/>
</g>
</svg>
